<?xml version="1.0" encoding="UTF-8" standalone="no" ?>
<!DOCTYPE svg PUBLIC "-//W3C//DTD SVG 1.1//EN" "http://www.w3.org/Graphics/SVG/1.1/DTD/svg11.dtd">
<svg xmlns="http://www.w3.org/2000/svg" xmlns:xlink="http://www.w3.org/1999/xlink" version="1.1" width="1080" height="1080" viewBox="0 0 1080 1080" xml:space="preserve">
<desc>Created with Fabric.js 5.2.4</desc>
<defs>
</defs>
<g transform="matrix(1 0 0 1 540 540)" id="3f3707d2-f9c1-44ce-89d7-c7ea4fe9e847"  >
<rect style="stroke: none; stroke-width: 1; stroke-dasharray: none; stroke-linecap: butt; stroke-dashoffset: 0; stroke-linejoin: miter; stroke-miterlimit: 4; fill: rgb(255,255,255); fill-rule: nonzero; opacity: 1; visibility: hidden;" vector-effect="non-scaling-stroke"  x="-540" y="-540" rx="0" ry="0" width="1080" height="1080" />
</g>
<g transform="matrix(1 0 0 1 540 540)" id="5ed15692-5d91-408e-991b-5096d191680e"  >
</g>
<g transform="matrix(32.38 0 0 32.38 576.22 576.22)" id="3853c366-a5c1-4c11-99d8-c1c2017fbbe1"  >
<rect style="stroke: rgb(0,0,0); stroke-width: 0; stroke-dasharray: none; stroke-linecap: butt; stroke-dashoffset: 0; stroke-linejoin: miter; stroke-miterlimit: 4; fill: rgb(18,18,18); fill-rule: nonzero; opacity: 1;" vector-effect="non-scaling-stroke"  x="-33.0835" y="-33.0835" rx="0" ry="0" width="66.167" height="66.167" />
</g>
<g transform="matrix(1.41 0 0 1.41 540 540)"  >
<path style="stroke: none; stroke-width: 1; stroke-dasharray: none; stroke-linecap: butt; stroke-dashoffset: 0; stroke-linejoin: miter; stroke-miterlimit: 4; fill: rgb(253,253,253); fill-rule: nonzero; opacity: 1;" vector-effect="non-scaling-stroke"  transform=" translate(-1035.5, -595.69)" d="M 1231.109131 887.470642 C 1225.283813 887.416138 1219.458496 887.314453 1213.633179 887.313965 C 1089.038208 887.304565 964.443176 887.306396 839.097656 887.138062 C 828.601562 885.133972 821.273254 879.937561 818.411499 870.340637 C 816.930786 865.375061 817.088562 859.818726 817.086731 854.529114 C 817.026794 680.742188 817.065613 506.955261 816.950867 333.168457 C 816.945374 324.839569 818.417603 317.363647 823.939026 310.96286 C 823.939026 310.96286 823.995667 311.000275 824.310303 310.867767 C 829.740295 308.445312 834.855591 306.155334 840.439148 303.914856 C 964.952698 303.965393 1088.998047 303.967743 1213.043335 303.963806 C 1219.035767 303.963623 1225.028198 303.908203 1231.358276 304.014771 C 1236.554932 306.305237 1241.962402 307.730652 1246.099854 310.843811 C 1249.420776 313.342651 1251.202148 317.887604 1253.666626 321.524628 C 1253.67749 322.155823 1253.688477 322.787018 1253.743652 324.097229 C 1253.880371 327.104919 1254.053955 329.433655 1254.053711 331.76236 C 1254.035156 510.177032 1254.002808 688.591736 1253.97168 867.006409 C 1253.848145 867.621094 1253.724609 868.235779 1253.391602 869.404785 C 1252.488281 871.650513 1251.794556 873.341919 1250.951172 875.264343 C 1250.799927 875.678894 1250.798218 875.862366 1250.796631 876.045898 C 1250.49585 876.095093 1250.269409 876.25177 1249.739014 876.85199 C 1244.80249 883.32373 1238.277954 885.968933 1231.109131 887.470642 M 959.272339 717.186829 C 956.055298 715.869934 952.912476 714.305481 949.598633 713.31134 C 946.747009 712.455933 946.003662 711.028076 946.603271 708.231384 C 947.853882 702.398071 948.490601 696.408569 950.075439 690.675598 C 960.625244 652.512878 993.943909 624.518188 1033.930054 620.968689 C 1069.866943 617.778687 1099.239746 602.46228 1122.832275 575.475342 C 1134.825562 561.756531 1142.125 545.393982 1149.069214 528.854248 C 1150.351929 525.799133 1151.861572 524.257812 1155.348389 523.569031 C 1181.60498 518.382141 1202.524536 494.877991 1205.140015 468.049713 C 1209.213989 426.26181 1172.327515 391.492401 1131.019409 398.988098 C 1104.845215 403.73764 1087.14856 419.683807 1080.472412 445.378082 C 1074.098999 469.907288 1080.598389 491.849426 1099.843262 509.076935 C 1104.8479 513.557007 1110.842773 516.930908 1116.618286 520.977844 C 1115.086426 524.40625 1113.515869 528.228149 1111.702759 531.931458 C 1095.427002 565.175293 1068.755005 584.207886 1032.093628 588.021606 C 1004.261597 590.91687 979.76416 600.675781 958.504517 618.72876 C 954.559448 622.078918 950.778931 625.622925 946.705811 629.271667 C 946.379028 628.272583 946.201599 627.983337 946.201538 627.694092 C 946.193115 579.369873 946.254089 531.045471 946.091736 482.721771 C 946.078918 478.917542 948.318115 478.327911 950.765625 477.505066 C 982.435181 466.857971 1000.588501 432.895752 991.882874 400.505402 C 982.23114 364.594696 943.611755 343.92038 908.747192 356.589661 C 884.310242 365.469696 869.740173 383.477081 866.358032 409.128967 C 863.297546 432.340942 871.416443 452.168549 889.896301 466.808807 C 896.77655 472.25946 905.111694 475.873505 913.324463 480.638977 C 913.324463 557.012451 913.324463 634.604309 913.324463 712.111633 C 879.301697 722.231323 862.836853 752.472656 866.11322 781.068604 C 869.862122 813.788635 895.093079 834.689453 922.173401 837.773682 C 955.84314 841.608398 983.309937 820.305054 991.747986 791.311157 C 999.938599 763.167419 986.232544 731.29248 959.272339 717.186829 z" stroke-linecap="round" />
</g>
<g transform="matrix(1.41 0 0 1.41 539.94 539.62)"  >
<path style="stroke: none; stroke-width: 1; stroke-dasharray: none; stroke-linecap: butt; stroke-dashoffset: 0; stroke-linejoin: miter; stroke-miterlimit: 4; fill: rgb(18,18,18); fill-rule: nonzero; opacity: 1;" vector-effect="non-scaling-stroke"  transform=" translate(-1035.58, -595.53)" d="M 959.57312 717.407959 C 986.232544 731.29248 999.938599 763.167419 991.747986 791.311157 C 983.309937 820.305054 955.84314 841.608398 922.173401 837.773682 C 895.093079 834.689453 869.862122 813.788635 866.11322 781.068604 C 862.836853 752.472656 879.301697 722.231323 913.324463 712.111633 C 913.324463 634.604309 913.324463 557.012451 913.324463 480.638977 C 905.111694 475.873505 896.77655 472.25946 889.896301 466.808807 C 871.416443 452.168549 863.297546 432.340942 866.358032 409.128967 C 869.740173 383.477081 884.310242 365.469696 908.747192 356.589661 C 943.611755 343.92038 982.23114 364.594696 991.882874 400.505402 C 1000.588501 432.895752 982.435181 466.857971 950.765625 477.505066 C 948.318115 478.327911 946.078918 478.917542 946.091736 482.721771 C 946.254089 531.045471 946.193115 579.369873 946.201538 627.694092 C 946.201599 627.983337 946.379028 628.272583 946.705811 629.271667 C 950.778931 625.622925 954.559448 622.078918 958.504517 618.72876 C 979.76416 600.675781 1004.261597 590.91687 1032.093628 588.021606 C 1068.755005 584.207886 1095.427002 565.175293 1111.702759 531.931458 C 1113.515869 528.228149 1115.086426 524.40625 1116.618286 520.977844 C 1110.842773 516.930908 1104.8479 513.557007 1099.843262 509.076935 C 1080.598389 491.849426 1074.098999 469.907288 1080.472412 445.378082 C 1087.14856 419.683807 1104.845215 403.73764 1131.019409 398.988098 C 1172.327515 391.492401 1209.213989 426.26181 1205.140015 468.049713 C 1202.524536 494.877991 1181.60498 518.382141 1155.348389 523.569031 C 1151.861572 524.257812 1150.351929 525.799133 1149.069214 528.854248 C 1142.125 545.393982 1134.825562 561.756531 1122.832275 575.475342 C 1099.239746 602.46228 1069.866943 617.778687 1033.930054 620.968689 C 993.943909 624.518188 960.625244 652.512878 950.075439 690.675598 C 948.490601 696.408569 947.853882 702.398071 946.603271 708.231384 C 946.003662 711.028076 946.747009 712.455933 949.598633 713.31134 C 952.912476 714.305481 956.055298 715.869934 959.57312 717.407959 M 903.761353 400.385193 C 898.866028 408.242401 897.377136 416.735901 899.583374 425.69104 C 902.583496 437.868683 913.745056 447.214722 926.743652 448.804169 C 938.772644 450.275085 950.923462 443.76004 957.378723 432.378326 C 963.504639 421.577332 962.144226 407.964478 954.015747 397.876373 C 942.22522 383.243347 917.842041 381.301086 903.761353 400.385193 M 905.532654 754.089661 C 894.636475 768.917664 896.88031 787.5 910.883911 798.406433 C 923.908813 808.550476 943.321899 806.36853 953.88208 793.57373 C 964.669128 780.504028 963.138 760.880554 950.490723 750.11145 C 936.807312 738.460083 918.259949 739.889954 905.532654 754.089661 M 1110.729736 458.689972 C 1108.299194 482.711792 1133.612427 499.841217 1154.727295 489.847534 C 1168.414551 483.369293 1175.541504 468.506531 1171.751465 453.322876 C 1168.318359 439.568848 1154.593262 429.355316 1140.649292 430.17807 C 1124.727783 431.117523 1112.578491 442.372498 1110.729736 458.689972 z" stroke-linecap="round" />
</g>
<g transform="matrix(1.41 0 0 1.41 390.37 288.04)"  >
<path style="stroke: none; stroke-width: 1; stroke-dasharray: none; stroke-linecap: butt; stroke-dashoffset: 0; stroke-linejoin: miter; stroke-miterlimit: 4; fill: rgb(250,250,250); fill-rule: nonzero; opacity: 1;" vector-effect="non-scaling-stroke"  transform=" translate(-929.89, -417.73)" d="M 903.983276 400.096893 C 917.842041 381.301086 942.22522 383.243347 954.015747 397.876373 C 962.144226 407.964478 963.504639 421.577332 957.378723 432.378326 C 950.923462 443.76004 938.772644 450.275085 926.743652 448.804169 C 913.745056 447.214722 902.583496 437.868683 899.583374 425.69104 C 897.377136 416.735901 898.866028 408.242401 903.983276 400.096893 z" stroke-linecap="round" />
</g>
<g transform="matrix(1.41 0 0 1.41 390.37 790.13)"  >
<path style="stroke: none; stroke-width: 1; stroke-dasharray: none; stroke-linecap: butt; stroke-dashoffset: 0; stroke-linejoin: miter; stroke-miterlimit: 4; fill: rgb(250,250,250); fill-rule: nonzero; opacity: 1;" vector-effect="non-scaling-stroke"  transform=" translate(-929.88, -773.53)" d="M 905.76532 753.815552 C 918.259949 739.889954 936.807312 738.460083 950.490723 750.11145 C 963.138 760.880554 964.669128 780.504028 953.88208 793.57373 C 943.321899 806.36853 923.908813 808.550476 910.883911 798.406433 C 896.88031 787.5 894.636475 768.917664 905.76532 753.815552 z" stroke-linecap="round" />
</g>
<g transform="matrix(1.41 0 0 1.41 689.24 349.71)"  >
<path style="stroke: none; stroke-width: 1; stroke-dasharray: none; stroke-linecap: butt; stroke-dashoffset: 0; stroke-linejoin: miter; stroke-miterlimit: 4; fill: rgb(250,250,250); fill-rule: nonzero; opacity: 1;" vector-effect="non-scaling-stroke"  transform=" translate(-1141.69, -461.44)" d="M 1110.795654 458.231476 C 1112.578491 442.372498 1124.727783 431.117523 1140.649292 430.17807 C 1154.593262 429.355316 1168.318359 439.568848 1171.751465 453.322876 C 1175.541504 468.506531 1168.414551 483.369293 1154.727295 489.847534 C 1133.612427 499.841217 1108.299194 482.711792 1110.795654 458.231476 z" stroke-linecap="round" />
</g>
</svg>