<?xml version="1.0" encoding="UTF-8" standalone="no" ?>
<!DOCTYPE svg PUBLIC "-//W3C//DTD SVG 1.1//EN" "http://www.w3.org/Graphics/SVG/1.1/DTD/svg11.dtd">
<svg xmlns="http://www.w3.org/2000/svg" xmlns:xlink="http://www.w3.org/1999/xlink" version="1.1" width="1080" height="1080" viewBox="0 0 1080 1080" xml:space="preserve">
<desc>Created with Fabric.js 5.2.4</desc>
<defs>
</defs>
<g transform="matrix(1 0 0 1 540 540)" id="e065b890-6017-4260-a71f-caf0324a1b3f"  >
<rect style="stroke: none; stroke-width: 1; stroke-dasharray: none; stroke-linecap: butt; stroke-dashoffset: 0; stroke-linejoin: miter; stroke-miterlimit: 4; fill: rgb(255,255,255); fill-rule: nonzero; opacity: 1; visibility: hidden;" vector-effect="non-scaling-stroke"  x="-540" y="-540" rx="0" ry="0" width="1080" height="1080" />
</g>
<g transform="matrix(1 0 0 1 540 540)" id="fa070c11-850e-4a12-ad94-ca9273c7bd60"  >
</g>
<g transform="matrix(1.25 0 0 1.25 540 540)"  >
<g style="" vector-effect="non-scaling-stroke"   >
		<g transform="matrix(1 0 0 1 -490 -490)"  >
<rect style="stroke: none; stroke-width: 1; stroke-dasharray: none; stroke-linecap: butt; stroke-dashoffset: 0; stroke-linejoin: miter; stroke-miterlimit: 4; fill: rgb(255,255,255); fill-opacity: 0; fill-rule: nonzero; opacity: 1;" vector-effect="non-scaling-stroke"  x="-50" y="-50" rx="0" ry="0" width="100" height="100" />
</g>
		<g transform="matrix(1 0 0 1 0 0)"  >
<rect style="stroke: none; stroke-width: 1; stroke-dasharray: none; stroke-linecap: butt; stroke-dashoffset: 0; stroke-linejoin: miter; stroke-miterlimit: 4; fill: rgb(255,255,255); fill-rule: nonzero; opacity: 1; visibility: hidden;" vector-effect="non-scaling-stroke"  x="-540" y="-540" rx="0" ry="0" width="1080" height="1080" />
</g>
		<g transform="matrix(2.98 0 0 2.98 0 0.01)"  >
<path style="stroke: none; stroke-width: 1; stroke-dasharray: none; stroke-linecap: butt; stroke-dashoffset: 0; stroke-linejoin: miter; stroke-miterlimit: 4; fill: rgb(0,0,0); fill-rule: nonzero; opacity: 1;" vector-effect="non-scaling-stroke"  transform=" translate(-512.72, -296.67)" d="M 595.997498 441.340332 C 537.02301 441.333374 478.547913 441.334503 420.072845 441.311493 C 408.589874 441.306976 404.059601 436.790802 404.055725 425.283875 C 404.027039 339.986938 404.015808 254.690002 404.021149 169.393066 C 404.021973 156.475266 408.537903 151.99791 421.498077 151.993637 C 482.638672 151.97348 543.779297 151.967056 604.919861 151.972992 C 617.09314 151.974167 621.370361 156.322357 621.372437 168.57547 C 621.386902 253.372635 621.400146 338.1698 621.409973 422.966949 C 621.410217 425.132416 621.459045 427.303558 621.326477 429.462311 C 620.90863 436.269501 616.299011 440.946136 609.489197 441.266937 C 605.166931 441.470581 600.828247 441.327515 595.997498 441.340332 M 438.619263 230.880447 C 441.343658 233.655441 444.474976 236.045013 448.125702 237.174606 C 452.372284 238.488556 453.11972 241.149704 453.107086 245.082321 C 452.998352 278.903412 452.926605 312.725647 453.13562 346.545715 C 453.169678 352.051727 451.736328 355.06842 446.35022 357.453033 C 433.457825 363.160889 426.62204 378.550995 430.010651 392.124847 C 433.650146 406.703613 446.558624 416.950897 460.844788 416.602173 C 475.686707 416.23996 488.339752 405.646881 491.382141 391.036377 C 494.268707 377.174225 486.892578 362.680176 473.218079 356.745087 C 468.712799 354.789642 468.274933 352.21051 469.050018 348.205505 C 473.194122 326.792023 490.140015 311.169739 511.998535 308.913818 C 538.359802 306.193146 556.319641 292.175659 566.643311 268.145691 C 568.566223 263.669769 570.897949 261.072571 575.782104 259.529877 C 591.012817 254.719086 599.242126 238.867905 595.555725 222.788971 C 592.323486 208.690781 577.290405 197.948776 562.948792 199.48941 C 546.803406 201.223801 534.463867 214.050186 534.409485 229.695496 C 534.368286 241.533722 539.321838 250.915802 549.63855 257.162689 C 551.610962 258.357025 553.876953 259.082336 552.428528 262.396576 C 544.575317 280.365845 531.321899 291.133331 511.604004 293.329132 C 499.61441 294.664337 488.605743 298.419037 478.768341 305.551727 C 475.567352 307.87262 473.062897 311.123016 469.433502 312.788391 C 468.121887 311.912537 468.051086 310.748444 468.109344 309.56781 C 469.185303 287.757935 468.3703 265.934235 468.497406 244.117889 C 468.518829 240.44014 469.483978 238.621155 473.024902 237.089951 C 490.061951 229.722626 496.989655 209.486038 487.998047 193.494217 C 481.499634 181.936539 471.225372 176.497635 458.093842 177.419128 C 445.751068 178.285248 436.643341 184.786667 431.858368 196.138809 C 426.584656 208.650558 428.917511 220.267059 438.619263 230.880447 z" stroke-linecap="round" />
</g>
		<g transform="matrix(2.98 0 0 2.98 -154.98 264.06)"  >
<path style="stroke: none; stroke-width: 1; stroke-dasharray: none; stroke-linecap: butt; stroke-dashoffset: 0; stroke-linejoin: miter; stroke-miterlimit: 4; fill: rgb(0,0,0); fill-rule: nonzero; opacity: 1;" vector-effect="non-scaling-stroke"  transform=" translate(-460.74, -384.86)" d="M 446.294983 391.278809 C 443.800903 382.61499 445.443604 376.581879 451.21228 372.207062 C 456.346405 368.313538 463.463654 368.057495 468.967438 371.568481 C 474.602509 375.163208 477.377777 381.866608 475.948792 388.431366 C 474.623413 394.520111 469.543488 399.317047 463.317017 400.359344 C 456.258331 401.540924 450.658417 398.639832 446.294983 391.278809 z" stroke-linecap="round" />
</g>
		<g transform="matrix(2.98 0 0 2.98 -155.53 -261.84)"  >
<path style="stroke: none; stroke-width: 1; stroke-dasharray: none; stroke-linecap: butt; stroke-dashoffset: 0; stroke-linejoin: miter; stroke-miterlimit: 4; fill: rgb(0,0,0); fill-rule: nonzero; opacity: 1;" vector-effect="non-scaling-stroke"  transform=" translate(-460.57, -208.9)" d="M 456.076691 193.674316 C 465.736389 191.811874 473.57132 196.381622 475.832092 204.864563 C 477.998627 212.993896 473.369324 221.356995 465.342316 223.814896 C 457.198975 226.308411 448.763672 222.195007 445.826935 214.298431 C 442.703796 205.900696 446.576233 197.841583 456.076691 193.674316 z" stroke-linecap="round" />
</g>
		<g transform="matrix(2.98 0 0 2.98 157.44 -197.51)"  >
<path style="stroke: none; stroke-width: 1; stroke-dasharray: none; stroke-linecap: butt; stroke-dashoffset: 0; stroke-linejoin: miter; stroke-miterlimit: 4; fill: rgb(0,0,0); fill-rule: nonzero; opacity: 1;" vector-effect="non-scaling-stroke"  transform=" translate(-565.27, -230.43)" d="M 579.908569 224.53688 C 582.585388 233.848312 579.403198 241.463104 571.715393 244.879196 C 564.478882 248.094757 556.131775 245.518021 552.134827 238.834732 C 547.894592 231.744629 549.287537 223.137558 555.485718 218.128891 C 563.542419 211.618347 574.367859 214.313858 579.908569 224.53688 z" stroke-linecap="round" />
</g>
</g>
</g>
</svg>